<?xml version="1.0" encoding="iso-8859-1"?>
<!-- Generator: Adobe Illustrator 19.0.0, SVG Export Plug-In . SVG Version: 6.00 Build 0)  -->
<svg version="1.1" id="Layer_1" xmlns="http://www.w3.org/2000/svg" xmlns:xlink="http://www.w3.org/1999/xlink" x="0px" y="0px"
	 viewBox="0 0 512 512" style="enable-background:new 0 0 512 512;" xml:space="preserve">
<g>
	<g>
		<g>
			<path d="M456.313,85.333h-55.529C386.805,36.16,341.585,0,288,0s-98.805,36.16-112.784,85.333H105.78l-3.488-11.958
				C97,55.292,80.167,42.667,61.333,42.667H32c-5.896,0-10.667,4.771-10.667,10.667C21.333,59.229,26.104,64,32,64h29.333
				c9.417,0,17.833,6.323,20.479,15.365L148.208,307l-34.021,42.521c-4.854,6.073-7.521,13.688-7.521,21.458
				c0,18.948,15.417,34.354,34.354,34.354h296.313c5.896,0,10.667-4.771,10.667-10.667S443.229,384,437.333,384H141.021
				c-7.188,0-13.021-5.844-13.021-13.021c0-2.948,1.021-5.844,2.854-8.135L165.133,320h209.221c16.458,0,31.625-9.615,38.604-24.5
				l74.458-158.177c2.125-4.552,3.25-9.604,3.25-14.615v-3.021C490.667,100.74,475.25,85.333,456.313,85.333z M288,21.333
				c52.938,0,96,43.063,96,96s-43.063,96-96,96s-96-43.063-96-96S235.063,21.333,288,21.333z M469.333,122.708
				c0,1.906-0.438,3.823-1.229,5.542l-74.438,158.177c-3.5,7.438-11.083,12.24-19.313,12.24H168.01l-56.008-192h59.204
				c-0.319,3.518-0.54,7.066-0.54,10.667c0,64.698,52.646,117.333,117.333,117.333s117.333-52.635,117.333-117.333
				c0-3.6-0.221-7.148-0.54-10.667h51.52c7.188,0,13.021,5.844,13.021,13.021V122.708z"/>
			<path d="M149.333,426.667c-23.521,0-42.667,19.135-42.667,42.667S125.813,512,149.333,512C172.854,512,192,492.865,192,469.333
				S172.854,426.667,149.333,426.667z M149.333,490.667c-11.771,0-21.333-9.573-21.333-21.333c0-11.76,9.563-21.333,21.333-21.333
				c11.771,0,21.333,9.573,21.333,21.333C170.667,481.094,161.104,490.667,149.333,490.667z"/>
			<path d="M405.333,426.667c-23.521,0-42.667,19.135-42.667,42.667S381.813,512,405.333,512C428.854,512,448,492.865,448,469.333
				S428.854,426.667,405.333,426.667z M405.333,490.667c-11.771,0-21.333-9.573-21.333-21.333c0-11.76,9.563-21.333,21.333-21.333
				c11.771,0,21.333,9.573,21.333,21.333C426.667,481.094,417.104,490.667,405.333,490.667z"/>
			<path d="M312.458,156.875c2.083,2.083,4.813,3.125,7.542,3.125s5.458-1.042,7.542-3.125c4.167-4.167,4.167-10.917,0-15.083
				l-28.875-28.875V53.333c0-5.896-4.771-10.667-10.667-10.667s-10.667,4.771-10.667,10.667v64c0,2.833,1.125,5.542,3.125,7.542
				L312.458,156.875z"/>
		</g>
	</g>
</g>
<g>
</g>
<g>
</g>
<g>
</g>
<g>
</g>
<g>
</g>
<g>
</g>
<g>
</g>
<g>
</g>
<g>
</g>
<g>
</g>
<g>
</g>
<g>
</g>
<g>
</g>
<g>
</g>
<g>
</g>
</svg>
